<svg width="137" height="40" viewBox="0 0 137 40" fill="none" xmlns="http://www.w3.org/2000/svg">
<rect width="137" height="40" fill="black" fill-opacity="0"/>
<path fill-rule="evenodd" clip-rule="evenodd" d="M135.055 20.9185C135.055 19.1236 134.605 17.7714 133.703 16.863C132.805 15.9533 131.463 15.4952 129.691 15.4952H127.365V26.4927H129.312C131.219 26.4927 132.654 26.0243 133.616 25.0849C134.574 24.1469 135.055 22.7559 135.055 20.9185ZM136.75 20.863C136.75 23.1365 136.134 24.8772 134.901 26.0772C133.668 27.2772 131.892 27.8811 129.575 27.8811H125.764V14.1082H129.979C132.12 14.1082 133.784 14.7017 134.971 15.8888C136.158 17.0772 136.75 18.7365 136.75 20.863ZM115.446 20.783H117.636C118.769 20.783 119.597 20.5584 120.12 20.1068C120.649 19.663 120.912 18.9855 120.912 18.0888C120.912 17.1791 120.645 16.521 120.107 16.121C119.573 15.7184 118.711 15.5159 117.524 15.5159H115.446V20.783ZM115.446 22.1533V27.8811H113.846V14.1082H117.618C119.306 14.1082 120.555 14.4333 121.36 15.0785C122.164 15.7249 122.568 16.6978 122.568 17.9972C122.568 19.8217 121.649 21.0527 119.804 21.6953L123.541 27.8811H121.649L118.315 22.1533H115.446ZM108.469 27.8811H110.07V14.1082H108.469V27.8811ZM97.5747 21.3623V26.5133H100.451C101.556 26.5133 102.396 26.2965 102.954 25.8655C103.519 25.4371 103.8 24.7636 103.8 23.8475C103.8 22.9946 103.51 22.3675 102.943 21.9623C102.363 21.561 101.492 21.3623 100.317 21.3623H97.5747ZM97.5747 20.0114H100.21C101.339 20.0114 102.153 19.8346 102.648 19.4772C103.149 19.1236 103.395 18.5249 103.395 17.6849C103.395 16.912 103.118 16.3507 102.567 16.0114C102.011 15.6694 101.138 15.4952 99.931 15.4952H97.5747V20.0114ZM95.9741 14.1082H99.8639C101.689 14.1082 103.012 14.3817 103.826 14.9288C104.641 15.4759 105.05 16.3417 105.05 17.5185C105.05 18.3353 104.827 19.0101 104.37 19.543C103.915 20.072 103.252 20.414 102.378 20.5727V20.6669C104.468 21.0217 105.513 22.1236 105.513 23.9623C105.513 25.1946 105.096 26.1559 104.267 26.8462C103.434 27.5365 102.271 27.8811 100.777 27.8811H95.9741V14.1082Z" fill="#ED498D"/>
<rect width="31" height="39" fill="black" fill-opacity="0" transform="translate(0 0.128418)"/>
<mask id="mask0" mask-type="alpha" maskUnits="userSpaceOnUse" x="0" y="0" width="31" height="39">
<path fill-rule="evenodd" clip-rule="evenodd" d="M30.2408 38.8381H0V0.291016H30.2408V38.8381Z" fill="white"/>
</mask>
<g mask="url(#mask0)">
<path fill-rule="evenodd" clip-rule="evenodd" d="M15.1201 2.24341C15.4683 2.24341 15.752 2.52857 15.752 2.87567C15.752 3.22663 15.4683 3.50792 15.1201 3.50792C14.7693 3.50792 14.4868 3.22663 14.4868 2.87567C14.4868 2.52857 14.7693 2.24341 15.1201 2.24341ZM21.7739 17.7261C22.2756 17.7261 22.6806 18.1093 22.6806 18.5854C22.6806 19.0603 22.2756 19.4448 21.7739 19.4448C21.2722 19.4448 20.866 19.0603 20.866 18.5854C20.866 18.1093 21.2722 17.7261 21.7739 17.7261ZM15.5833 38.8383H14.656V36.0937C14.9668 36.0937 15.2751 36.0808 15.5833 36.0576V38.8383ZM17.3682 0.917014V6.72734H17.354L17.2805 6.71959L17.2211 6.71443H17.2018L17.1257 6.70669L17.047 6.69895H17.0199L16.9709 6.6925L16.8923 6.68605L16.8149 6.68218H16.8136L16.7349 6.67701L16.6575 6.67185L16.6085 6.66927L16.5789 6.66669L16.4215 6.65766L16.4009 6.65637L16.339 6.65379L16.2616 6.64863L16.1919 6.64605H16.179L16.1004 6.64088L16.0204 6.6383H15.9804L15.9392 6.63572L15.8592 6.63314L15.8218 6.63056V8.91056C23.8464 9.27701 30.2409 15.9028 30.2409 24.0215C30.2409 30.0099 26.7586 35.1841 21.7145 37.6383V37.8835C21.7145 38.4073 21.2863 38.8383 20.7614 38.8383H16.5569V35.9519C23.9986 34.8564 26.9624 28.9338 26.5445 21.9157L28.6029 20.3119L26.186 19.4835C25.3889 16.157 22.3271 14.7183 19.6832 15.2396C16.9503 15.7802 14.8919 18.1957 15.0712 21.5119C15.5613 30.7054 12.9264 33.566 6.61577 32.9764C8.55938 34.917 11.1066 35.8796 13.6834 36.0628V38.8383H9.47766C8.95275 38.8383 8.52327 38.4073 8.52327 37.8835V37.6357C3.47789 35.1841 -0.000488281 30.0099 -0.000488281 24.0215C-0.000488281 15.9028 6.39265 9.27701 14.4173 8.91056V6.63056L14.3812 6.63314L14.3012 6.63572L14.2599 6.6383H14.2174L14.1387 6.64088L14.0587 6.64605H14.0484L13.9788 6.64863L13.9001 6.65379L13.8382 6.65637L13.8201 6.65766L13.6602 6.66669L13.6306 6.66927L13.5815 6.67185L13.5042 6.67701L13.4242 6.68218L13.3455 6.68605L13.2694 6.6925L13.2191 6.69895H13.1908L13.1134 6.70669L13.0373 6.71443H13.0179L12.9599 6.71959L12.8851 6.72734H12.8696V0.917014C12.8696 0.569917 13.8769 0.289917 15.1202 0.289917C16.3635 0.289917 17.3682 0.569917 17.3682 0.917014Z" fill="#010202"/>
</g>
<path fill-rule="evenodd" clip-rule="evenodd" d="M58.6572 33.668C59.1692 33.668 59.5819 34.0809 59.5819 34.5931C59.5819 35.1041 59.1692 35.5157 58.6572 35.5157C58.1464 35.5157 57.7324 35.1041 57.7324 34.5931C57.7324 34.0809 58.1464 33.668 58.6572 33.668Z" fill="#010202"/>
<path fill-rule="evenodd" clip-rule="evenodd" d="M116.089 33.668C116.598 33.668 117.013 34.0809 117.013 34.5931C117.013 35.1041 116.598 35.5157 116.089 35.5157C115.577 35.5157 115.163 35.1041 115.163 34.5931C115.163 34.0809 115.577 33.668 116.089 33.668Z" fill="#010202"/>
<path fill-rule="evenodd" clip-rule="evenodd" d="M112.039 36.7124H111.678L110.054 34.4763L109.491 34.9731V36.7124H109.198V32.4814H109.491V34.6789L109.962 34.2092L111.618 32.4814H111.99L110.262 34.2673L112.039 36.7124ZM102.481 34.6131H103.285C103.643 34.6131 103.918 34.5318 104.115 34.3731C104.31 34.2144 104.409 33.9783 104.409 33.6686C104.409 33.3434 104.315 33.106 104.12 32.9628C103.93 32.8131 103.615 32.7408 103.178 32.7408H102.481V34.6131ZM102.481 34.8698V36.7124H102.186V32.4814H103.192C103.715 32.4814 104.104 32.5795 104.353 32.7705C104.601 32.9653 104.728 33.2569 104.728 33.6453C104.728 33.9305 104.653 34.1692 104.503 34.364C104.355 34.5576 104.129 34.6982 103.824 34.7847L104.973 36.7124H104.618L103.528 34.8698H102.481ZM94.262 34.5873C94.262 35.1924 94.3961 35.6634 94.6656 35.9937C94.9365 36.324 95.3247 36.4879 95.829 36.4879C96.3384 36.4879 96.7253 36.3266 96.9949 36.0015C97.2619 35.6711 97.3973 35.2002 97.3973 34.5873C97.3973 33.9808 97.2619 33.5111 96.9949 33.186C96.7253 32.8621 96.341 32.7008 95.8328 32.7008C95.3311 32.7008 94.9429 32.8621 94.6708 33.1911C94.3987 33.5189 94.262 33.986 94.262 34.5873ZM97.7171 34.5898C97.7171 35.2608 97.5495 35.795 97.218 36.1834C96.8827 36.5731 96.4171 36.7705 95.829 36.7705C95.2422 36.7705 94.7779 36.5731 94.4413 36.1834C94.1098 35.795 93.9421 35.2608 93.9421 34.5834C93.9421 33.9124 94.1111 33.3808 94.4477 32.995C94.7869 32.6118 95.2473 32.4182 95.8329 32.4182C96.4249 32.4182 96.8866 32.6118 97.218 32.9976C97.5521 33.3885 97.7171 33.9201 97.7171 34.5898ZM80.5999 36.7124H80.3562L79.4289 33.4466C79.3528 33.1821 79.2934 32.9602 79.2573 32.7885C79.2264 32.955 79.1812 33.146 79.1245 33.3653C79.0665 33.5847 78.7556 34.6982 78.192 36.7124H77.9431L76.7798 32.4814H77.0906L77.8322 35.2053C77.8593 35.3163 77.8851 35.4169 77.9122 35.5124C77.938 35.604 77.9586 35.6918 77.9792 35.7743C78.0012 35.8556 78.0192 35.9356 78.0347 36.0092C78.0514 36.0879 78.0656 36.1653 78.0798 36.2389C78.1263 35.9795 78.2243 35.5808 78.3739 35.0466L79.0987 32.4814H79.425L80.2723 35.4247C80.3691 35.7653 80.4413 36.0389 80.4826 36.2466C80.5071 36.1098 80.5393 35.9589 80.578 35.8053C80.618 35.6492 80.9159 34.5421 81.4705 32.4814H81.7684L80.5999 36.7124ZM72.7841 36.7124H70.4717V32.4814H72.7841V32.755H70.767V34.3511H72.6694V34.626H70.767V36.435H72.7841V36.7124ZM88.5188 34.795L89.7582 32.4814H90.0768L88.6671 35.0737V36.7124H88.364V35.0995L86.9492 32.4814H87.2871L88.5188 34.795ZM65.7784 36.7124H65.4818L62.9797 32.955H62.9552C62.9797 33.4027 62.99 33.7408 62.99 33.9653V36.7124H62.7063V32.4814H63.0029L65.4998 36.2311H65.5192C65.4998 35.8827 65.4921 35.5524 65.4921 35.2402V32.4814H65.7784V36.7124Z" fill="#010202"/>
<path fill-rule="evenodd" clip-rule="evenodd" d="M89.5172 27.8817H88.5473V15.0172H84.072V14.1088H93.9913V15.0172H89.5172V27.8817ZM82.0266 27.8817H81.0593L72.9095 15.6546H72.8309C72.9095 17.1101 72.9431 18.212 72.9431 18.9501V27.8817H72.0222V14.1088H72.9818L81.1238 26.3191H81.1792C81.1238 25.1875 81.098 24.1139 81.098 23.0933V14.1088H82.0266V27.8817ZM68.9101 27.8817H61.3833V14.1088H68.9101V14.9952H62.3493V20.2055H68.5425V21.092H62.3493V26.9952H68.9101V27.8817ZM55.2815 14.7642C53.5546 14.7642 52.1953 15.3178 51.2047 16.4223C50.213 17.532 49.7177 19.0455 49.7177 20.972C49.7177 22.9397 50.1872 24.4688 51.1209 25.5552C52.0585 26.6442 53.3908 27.1888 55.1281 27.1888C56.285 27.1888 57.3477 27.0404 58.3124 26.7449V27.5913C57.4018 27.9139 56.2682 28.0726 54.905 28.0726C52.973 28.0726 51.4498 27.4507 50.3381 26.2004C49.2289 24.9488 48.6743 23.2042 48.6743 20.9617C48.6743 19.5604 48.9361 18.3255 49.4662 17.2597C49.9976 16.1926 50.7611 15.3694 51.7542 14.7862C52.7511 14.203 53.908 13.9165 55.2261 13.9165C56.5687 13.9165 57.772 14.1642 58.8321 14.6546L58.4427 15.5152C57.438 15.0171 56.3881 14.7642 55.2815 14.7642ZM46.4986 24.3359C46.4986 25.483 46.0768 26.3952 45.232 27.0649C44.386 27.7384 43.2665 28.0726 41.8672 28.0726C40.1841 28.0726 38.8944 27.8894 37.9941 27.5191V26.5539C38.9872 26.9771 40.2511 27.1888 41.7898 27.1888C42.9222 27.1888 43.8134 26.9242 44.4801 26.4094C45.1418 25.8907 45.4732 25.2133 45.4732 24.3707C45.4732 23.852 45.3636 23.4184 45.1418 23.0778C44.9225 22.7359 44.564 22.4236 44.0687 22.1384C43.5735 21.8559 42.8435 21.5539 41.8826 21.2262C40.4781 20.7397 39.5083 20.221 38.973 19.6584C38.4352 19.0959 38.1657 18.3449 38.1657 17.4107C38.1657 16.381 38.5694 15.5397 39.3767 14.8894C40.1841 14.2391 41.2172 13.9165 42.4875 13.9165C43.7785 13.9165 44.9947 14.1604 46.1323 14.6507L45.7815 15.4791C44.6414 15.0017 43.5477 14.7642 42.5069 14.7642C41.488 14.7642 40.6793 15.0004 40.0783 15.4726C39.4734 15.941 39.1742 16.581 39.1742 17.3901C39.1742 17.8997 39.2658 18.3152 39.4515 18.643C39.636 18.9707 39.9403 19.2649 40.3608 19.5242C40.7812 19.7875 41.5009 20.0997 42.5249 20.4597C43.5993 20.8326 44.4053 21.1952 44.9444 21.541C45.4848 21.8881 45.8782 22.2842 46.1258 22.7281C46.3747 23.172 46.4986 23.7062 46.4986 24.3359Z" fill="#010202"/>
</svg>
