<svg width="29" height="35" viewBox="0 0 29 35" fill="none" xmlns="http://www.w3.org/2000/svg">
<rect width="29" height="35" fill="black" fill-opacity="0"/>
<path fill-rule="evenodd" clip-rule="evenodd" d="M21.7763 27.1844C18.7565 29.8575 15.2206 31.6707 14.2088 32.1627L14.1775 32.1779L14.1462 32.1628C13.1345 31.6727 9.59858 29.8662 6.57859 27.1937C5.20206 25.9756 4.12056 24.7437 3.36408 23.5322C2.48286 22.1211 2.03613 20.7245 2.03613 19.3811V6.56125V6.49082H2.10726H2.1377C3.45527 6.49082 5.48706 6.37764 7.684 5.83828C10.1665 5.22884 12.3368 4.21281 14.1347 2.81856L14.1786 2.78455L14.2224 2.81856C16.0203 4.21288 18.1905 5.22892 20.6727 5.83828C22.8695 6.37764 24.9016 6.49082 26.2195 6.49082H26.25H26.3211V6.56125V19.3811C26.3211 20.7202 25.874 22.1139 24.9923 23.5237C24.2354 24.7338 23.1534 25.9655 21.7763 27.1844ZM28.3546 19.3811V4.36255C28.1087 4.39207 27.3209 4.47475 26.2171 4.47475C23.3146 4.47475 17.9032 3.90116 14.1773 0.0704346C10.4514 3.90116 5.03926 4.47475 2.13642 4.47475C1.03265 4.47475 0.245733 4.39207 0 4.36255V19.3811C0 21.3955 0.744524 23.4382 2.21287 25.4526C3.39047 27.0682 5.03343 28.669 7.09595 30.2107C10.4434 32.7128 13.8316 34.2486 14.1773 34.4025C14.5228 34.2486 17.9131 32.7117 21.2608 30.2091C23.3228 28.6676 24.9652 27.0669 26.1425 25.4515C27.6104 23.4375 28.3546 21.395 28.3546 19.3811Z" fill="#74BB2C"/>
<path fill-rule="evenodd" clip-rule="evenodd" d="M16.1873 15.7438H12.167V14.0775C12.167 12.9799 13.0688 12.087 14.1772 12.087C15.2856 12.087 16.1873 12.9799 16.1873 14.0775V15.7438ZM14.7978 20.2421V21.8156C14.7978 21.953 14.6853 22.0644 14.5466 22.0644H13.8082C13.6694 22.0644 13.5569 21.953 13.5569 21.8156V20.2421C13.2823 20.0493 13.103 19.7324 13.103 19.3738C13.103 18.7863 13.584 18.3099 14.1774 18.3099C14.7707 18.3099 15.2516 18.7863 15.2516 19.3738C15.2517 19.7324 15.0724 20.0493 14.7978 20.2421ZM18.7045 15.7438H18.0239V14.0775C18.0239 11.9771 16.2983 10.2682 14.1773 10.2682C12.0562 10.2682 10.3305 11.9771 10.3305 14.0775V15.7438H9.64996C9.43012 15.7438 9.25195 15.9202 9.25195 16.1379V23.5289C9.25195 23.7466 9.43012 23.9229 9.64996 23.9229H18.7046C18.9243 23.9229 19.1025 23.7466 19.1025 23.5289V16.1379C19.1025 15.9202 18.9243 15.7438 18.7045 15.7438Z" fill="#74BB2C"/>
</svg>
